<?xml version="1.0" encoding="utf-8"?>
<!-- Generator: Adobe Illustrator 15.0.0, SVG Export Plug-In . SVG Version: 6.00 Build 0)  -->
<!DOCTYPE svg PUBLIC "-//W3C//DTD SVG 1.1//EN" "http://www.w3.org/Graphics/SVG/1.1/DTD/svg11.dtd">
<svg version="1.1" id="Layer_1" xmlns="http://www.w3.org/2000/svg" xmlns:xlink="http://www.w3.org/1999/xlink" x="0px" y="0px"
	 width="595.279px" height="595.275px" viewBox="0 0 595.279 595.275" enable-background="new 0 0 595.279 595.275"
	 xml:space="preserve">
<g>
	<g>
		<g>
			<path fill="#454545" d="M209.073,253.1c27.057,0,48.976-21.921,48.976-49.019c0-16.892,5.939-32.352-7.102-41.129
				c-7.834-5.324-42.188-7.85-52.334-7.85c-12.071,0-27.755,9.851-36.307,17.102c-10.609,8.97-2.237,16.861-2.237,31.859
				C160.069,231.179,181.96,253.1,209.073,253.1z M174.932,199.274c8.999-1.629,15.115,1.345,15.115,1.345l15.041-7.328
				c0,0-7.655,11.056-0.789,7.328c15.312-5.133,32.441-3.002,41.156-1.286c0.297,1.911,0.581,3.865,0.581,5.896
				c0,20.158-16.01,36.47-35.89,36.47c-19.786-0.003-35.811-16.313-35.811-36.47C174.336,203.199,174.619,201.244,174.932,199.274z"
				/>
			<path fill="#454545" d="M448.143,197.202c-0.225-2.792-0.446-5.58-1.06-8.268c-1.938-17.179-17.325-52.079-61.435-51.035
				c-38.021,0.897-46.318,29.518-48.32,46.948c-1.341,4.281-2.204,8.759-2.508,13.416c-49.437,8.625-44.006,58.805-13.8,59.671
				c-2.883-26.216,9.622-41.946,14.431-47.006c4.443,27.057,27.812,47.856,56.105,47.856c26.846,0,49.242-18.684,55.303-43.675
				c4.642,8.16,12.415,24.873,10.521,42.837C504.952,257.53,481.541,203.153,448.143,197.202z M391.559,242.651
				c-22.218,0-40.32-17.92-40.829-40.05c8.117-2.953,14.147-17.01,14.147-17.01s4.805,1.655,4.805,17.532
				c8.419,2.926,23.04-24.666,23.04-24.666V200.2c9.283,2.536,38.531-0.822,38.531-0.822l1.073,0.912
				c0.029,0.462,0.152,0.939,0.152,1.402C432.507,224.285,414.164,242.651,391.559,242.651z"/>
			<polygon fill="#454545" points="403.482,260.248 379.41,260.248 359.325,260.248 300.474,331.157 243.528,261.141 
				178.783,261.141 110.976,335.591 125.184,350.243 173.723,308.817 173.723,389.157 183.468,389.157 183.468,450.236 
				177.276,450.236 177.276,457.399 205.463,457.399 205.463,450.236 205.463,389.157 216.026,389.157 216.026,450.236 
				216.026,457.399 244.158,457.399 244.158,450.236 237.979,450.236 237.979,389.157 249.798,389.157 249.798,310.326 
				288.606,350.167 304.471,346.26 313.249,348.469 357.22,298.146 359.715,318.085 318.887,388.249 365.981,388.249 
				365.981,449.343 359.803,449.343 359.803,456.443 387.964,456.443 387.964,449.343 387.991,449.343 387.991,388.249 
				398.511,388.249 398.511,449.343 398.511,456.443 426.701,456.443 426.701,449.343 420.509,449.343 420.509,388.249 
				457.01,388.249 421.045,318.085 423.013,293.555 457.382,339.604 480.154,333.936 425.655,260.248 			"/>
		</g>
	</g>
	<path fill="#FFFFFF" d="M174.932,199.274c8.999-1.629,15.115,1.345,15.115,1.345l15.041-7.328c0,0-7.655,11.056-0.789,7.328
		c15.312-5.133,32.441-3.002,41.156-1.286c0.297,1.911,0.581,3.865,0.581,5.896c0,20.158-16.01,36.47-35.89,36.47
		c-19.786-0.003-35.811-16.313-35.811-36.47C174.336,203.199,174.619,201.244,174.932,199.274z"/>
	<path fill="#FFFFFF" d="M391.559,242.651c-22.218,0-40.32-17.92-40.829-40.05c8.117-2.953,14.147-17.01,14.147-17.01
		s4.805,1.655,4.805,17.532c8.419,2.926,23.04-24.666,23.04-24.666V200.2c9.283,2.536,38.531-0.822,38.531-0.822l1.073,0.912
		c0.029,0.462,0.152,0.939,0.152,1.402C432.507,224.285,414.164,242.651,391.559,242.651z"/>
</g>
</svg>
